<svg xmlns="http://www.w3.org/2000/svg" viewBox="0 0 200 440">
  <!-- shadow -->
  <ellipse cx="100" cy="433" rx="48" ry="7" fill="rgba(0,0,0,0.28)"/>
  <!-- shoes -->
  <ellipse cx="78"  cy="426" rx="22" ry="9" fill="#1a1450"/>
  <ellipse cx="122" cy="426" rx="22" ry="9" fill="#1a1450"/>
  <!-- legs -->
  <rect x="65"  y="352" width="30" height="76" rx="8" fill="#3a3090"/>
  <rect x="105" y="352" width="30" height="76" rx="8" fill="#3a3090"/>
  <!-- robe -->
  <path d="M32,158 L168,158 L156,358 L44,358 Z" fill="#4848c0"/>
  <path d="M88,158 L112,158 L109,358 L91,358 Z" fill="#5858d8"/>
  <path d="M32,158  L62,158  L54,358  L44,358  Z" fill="#2a2888"/>
  <path d="M138,158 L168,158 L156,358 L146,358 Z" fill="#2a2888"/>
  <!-- belt -->
  <rect x="50" y="248" width="100" height="14" rx="6" fill="#18144a"/>
  <rect x="93" y="244" width="14" height="22" rx="4" fill="#6858c0"/>
  <!-- left arm -->
  <path d="M32,162 L11,286 C11,296 23,300 29,293 L44,168 Z" fill="#4848c0"/>
  <!-- right arm -->
  <path d="M168,162 L189,286 C189,296 177,300 171,293 L156,168 Z" fill="#4848c0"/>
  <!-- hands -->
  <circle cx="20"  cy="294" r="14" fill="#f0c090"/>
  <circle cx="180" cy="294" r="14" fill="#f0c090"/>
  <!-- wand (right hand) -->
  <line x1="180" y1="280" x2="196" y2="228" stroke="#8b6030" stroke-width="5" stroke-linecap="round"/>
  <circle cx="197" cy="225" r="9" fill="#7050d0"/>
  <circle cx="197" cy="225" r="4" fill="#c0b0f8"/>
  <!-- collar V + gem -->
  <path d="M86,158 L100,190 L114,158 Z" fill="#2a2888"/>
  <circle cx="100" cy="177" r="6" fill="#6858c0"/>
  <circle cx="100" cy="177" r="2.5" fill="#c0b0f8"/>
  <!-- neck -->
  <rect x="87" y="134" width="26" height="28" rx="10" fill="#f0c090"/>
  <!-- head -->
  <ellipse cx="100" cy="84" rx="52" ry="56" fill="#f0c090"/>
  <!-- hair back -->
  <ellipse cx="100" cy="50" rx="54" ry="38" fill="#7a3a1a"/>
  <ellipse cx="53"  cy="82" rx="15" ry="33" fill="#7a3a1a"/>
  <ellipse cx="147" cy="82" rx="15" ry="33" fill="#7a3a1a"/>
  <path d="M62,37 Q100,23 138,37" stroke="#9a5a2a" stroke-width="9" fill="none" stroke-linecap="round"/>
  <!-- ears -->
  <ellipse cx="48"  cy="88" rx="10" ry="14" fill="#f0c090"/>
  <ellipse cx="152" cy="88" rx="10" ry="14" fill="#f0c090"/>
  <!-- eyebrows -->
  <path d="M74,68 Q83,62 92,68" stroke="#7a3a1a" stroke-width="3.5" fill="none" stroke-linecap="round"/>
  <path d="M108,68 Q117,62 126,68" stroke="#7a3a1a" stroke-width="3.5" fill="none" stroke-linecap="round"/>
  <!-- eyes -->
  <ellipse cx="83"  cy="83" rx="10" ry="11" fill="white"/>
  <ellipse cx="117" cy="83" rx="10" ry="11" fill="white"/>
  <ellipse cx="84"  cy="84" rx="7"  ry="8"  fill="#3858c8"/>
  <ellipse cx="118" cy="84" rx="7"  ry="8"  fill="#3858c8"/>
  <ellipse cx="85"  cy="85" rx="3.5" ry="4" fill="#101830"/>
  <ellipse cx="119" cy="85" rx="3.5" ry="4" fill="#101830"/>
  <circle cx="88"  cy="81" r="2" fill="white"/>
  <circle cx="122" cy="81" r="2" fill="white"/>
  <!-- nose -->
  <circle cx="100" cy="100" r="3" fill="#d8a070"/>
  <!-- smile -->
  <path d="M88,114 Q100,124 112,114" stroke="#c06860" stroke-width="3" fill="none" stroke-linecap="round"/>
</svg>
